<svg xmlns="http://www.w3.org/2000/svg" viewBox="959 7376 499.998 511.079"><defs><style>.a{fill:#f8d035;}</style></defs><g transform="translate(1121.038 7584.765)"><path class="a" d="M313.228,105.429l4.277-2.131.852-2.975,5.114-3.425.853-2.99,4.276-2.139.853-35.826,8.507-1.712V36.744l-5.113-2.991-1.286-22.6-2.123-38.832-2.99-4.262H322.6l-5.113,2.135v2.127l-5.129,3.847h-3.425l-1.689-.864-1.286-22.6-7.252-8.107-4.262-24.74-1.72-2.134-2.123-6.822h-5.129l-22.608-21.756v-2.983l1.271-8.107v-11.518l-8.1-8.953-5.113-2.143-7.268-5.973h-8.1l-5.113-5.126-34.989-9.154-8.12-5.125-22.593-2.143-5.129-2.982-35.842-3.839v-3.413l.836-.856,5.129-4.269V-204.5l-2.99-3.413-64.4-.848-2.135.848-8.108,7.26-.86,6.4,2.995,2.983,2.983,2.127v8.108l-2.983,2.982H42.707l-21.326,2.135L18.39-178.9v-13.648l-7.252-8.1-15.368-.856-8.1,5.118-15.36,2.142-2.982,1.705-5.117,8.53.855,23.461-2.135,2.142h-7.252L-50.3-153.29h-2.982l-2.135-1.278-15.36,15.36-.849,7.26-2.142,2.975-10.235,8.108-17.5,15.36-.848,9.387-4.285,4.265h-2.975l-7.26.856-4.266,4.27L-122-82.892l-5.125,5.113-.849,11.521-2.134,1.705v5.129l-2.991,8.534-5.117,6.814-2.062,9.355-4.269,5.974-.849,7.26-4.269,9.387-2.134,8.956L-162.038,10.5l4.262,3.839v8.1l2.142,2.142,5.974,12.37,2.134,24.739-2.134,1.712v9.375l4.269,5.122-1.294,9.4-8.1,8.957-2.142,9.4-3.832,3.828v17.479l7.252,18.363.856,17.479,5.125,9.375,1.278,14.086,5.118,10.243,7.252,13.636h.856l2.134-2.123v-1.285l-1.294-4.68,6.412-7.268v-5.122l2.134-2.13h3.839l5.118,4.245,6.392,3.858,4.7,2.139,5.117,3.835,4.277,4.27,5.966-.868,2.135,1.705v3.408l-.856,5.13-9.387,8.12h-2.99l-2.983,2.99v.853l2.983,3.409v5.973l2.99,4.27v8.1l2.143,2.976,8.1,2.138,5.117,8.1h2.991l8.107-.852,3.4-2.139h19.2l4.265,2.99.853,4.262,22.616,23.477H10.325L26.541,295.9l22.6,4.277,2.991,2.139L58.1,295.9h6.411l7.252-5.949h44.354l9.4-5.13L146,283.556l5.129,6.4h22.608l5.981-6.4H186.1l5.13-6.005h6.833l6.4-5.1,5.129-.853,13.218-11.506,4.262-.859,11.73-6.818,8.1-1.271L252.032,246h5.114l7.268-5.965h5.1l4.277-2.991v-7.222l5.966-6,.853-5.129,5.129-5.122,1.271-8.546,5.129-5.09-5.129-5.121v-5.138l15.573-27.931v-9.375l.435-12.823v-3.8Zm-141.2-31.782L167.754,77.9l-2.99,8.119-5.13,10.243v15.372l-2.138,3-2.123,2.131-6.834-2.131-3.409-3-10.243,1.27-11.1,6.834v2.123l-2.123,2.131-14.085-.829h-3.409l-5.966,8.1-7.264,2.131-8.1-1.286-5.966-5.122H66.635L46.15,138.513l-3.413,3.835H38.914l-2.143-5.121-5.117-3.835-2.143-2.131-7.26,2.131H18.435l-1.285-7.268L8.2,118.043l-1.294-6.407L1.79,102.679l-8.957-9.391V77.916l5.125-12.365,5.118-8.957V51.48l-6.4-17.495,1.278-8.1L3.076,23.75,15.46,9.247l2.982-5.975V-3.147L13.325-8.264v-8.108l5.117-2.982.849-2.983,2.143-2.143H50.648l10.227-9.6h29.26l12.366-7.9,2.976,1.286v.848l2.99,2.983,5.129-5.125h4.277l5.1,5.125H128.1l6.818,7.26h12.366l2.99,2.135-.853,5.974-5.965,4.269H131.074l-7.252-2.142-5.95,5.974-1.317,4.269L128.1.268l14.07,1.705,5.114,3.412h2.138l11.1,15.356,2.139,1.7,8.1,1.286-3.843,11.091v25.61l5.129,10.22v3h-.015Z"/></g></svg>